<mxfile host="app.diagrams.net" modified="2024-01-27T03:02:31.486Z" agent="Mozilla/5.0 (Windows NT 10.0; Win64; x64) AppleWebKit/537.36 (KHTML, like Gecko) Chrome/121.0.0.0 Safari/537.36" etag="j8vlmMSKl53y7Kzg2aIZ" version="23.0.2" type="device">
  <diagram name="Seite-1" id="RjQElk5X8pEcTZn8_u9m">
    <mxGraphModel dx="1434" dy="754" grid="1" gridSize="10" guides="1" tooltips="1" connect="1" arrows="1" fold="1" page="1" pageScale="1" pageWidth="1169" pageHeight="827" math="0" shadow="0">
      <root>
        <mxCell id="0" />
        <mxCell id="1" parent="0" />
        <mxCell id="Pfc6o-DjHNUA7IROcY93-7" style="edgeStyle=orthogonalEdgeStyle;rounded=0;orthogonalLoop=1;jettySize=auto;html=1;entryX=0;entryY=0.5;entryDx=0;entryDy=0;" edge="1" parent="1" source="Pfc6o-DjHNUA7IROcY93-1" target="Pfc6o-DjHNUA7IROcY93-6">
          <mxGeometry relative="1" as="geometry" />
        </mxCell>
        <mxCell id="Pfc6o-DjHNUA7IROcY93-1" value="&lt;div style=&quot;text-align: left; font-size: 15px;&quot;&gt;&lt;span style=&quot;background-color: initial;&quot;&gt;&lt;font style=&quot;font-size: 15px;&quot;&gt;{&lt;/font&gt;&lt;/span&gt;&lt;/div&gt;&lt;div style=&quot;font-size: 15px;&quot;&gt;&lt;span style=&quot;background-color: initial;&quot;&gt;&lt;font style=&quot;font-size: 15px;&quot;&gt;....&lt;/font&gt;&lt;/span&gt;&lt;/div&gt;&lt;font style=&quot;font-size: 15px;&quot;&gt;&quot;satlatitude&quot;: - 39.90318614,&lt;br&gt;&amp;nbsp; &amp;nbsp;&quot;satlongitude&quot;:158.28897924,&lt;br&gt;&lt;div style=&quot;text-align: left;&quot;&gt;&lt;span style=&quot;background-color: initial;&quot;&gt;&amp;nbsp; &amp;nbsp;&quot;satlatitude&quot;:417.85,&lt;/span&gt;&lt;/div&gt;&lt;div style=&quot;text-align: left;&quot;&gt;&lt;span style=&quot;background-color: initial;&quot;&gt;&amp;nbsp; &amp;nbsp;&quot;azimuth&quot;:.254.31,&lt;/span&gt;&lt;/div&gt;&lt;div style=&quot;text-align: left;&quot;&gt;&lt;span style=&quot;background-color: initial;&quot;&gt;&amp;nbsp; &amp;nbsp;&quot;elevation&quot;:-69.09&lt;/span&gt;&lt;/div&gt;...&lt;br&gt;&lt;/font&gt;&lt;div style=&quot;text-align: left; font-size: 15px;&quot;&gt;&lt;span style=&quot;background-color: initial;&quot;&gt;&lt;font style=&quot;font-size: 15px;&quot;&gt;}&lt;/font&gt;&lt;/span&gt;&lt;/div&gt;" style="rounded=1;whiteSpace=wrap;html=1;fillColor=#d5e8d4;strokeColor=#82b366;" vertex="1" parent="1">
          <mxGeometry x="460" y="250" width="240" height="170" as="geometry" />
        </mxCell>
        <mxCell id="Pfc6o-DjHNUA7IROcY93-3" style="edgeStyle=orthogonalEdgeStyle;rounded=0;orthogonalLoop=1;jettySize=auto;html=1;entryX=0;entryY=0.5;entryDx=0;entryDy=0;curved=1;" edge="1" parent="1" target="Pfc6o-DjHNUA7IROcY93-1">
          <mxGeometry relative="1" as="geometry">
            <mxPoint x="350" y="335" as="sourcePoint" />
          </mxGeometry>
        </mxCell>
        <mxCell id="Pfc6o-DjHNUA7IROcY93-5" value="&lt;font style=&quot;font-size: 17px;&quot;&gt;API&lt;br&gt;(N2YO)&lt;/font&gt;" style="ellipse;whiteSpace=wrap;html=1;fillColor=#dae8fc;strokeColor=#6c8ebf;" vertex="1" parent="1">
          <mxGeometry x="230" y="295" width="120" height="80" as="geometry" />
        </mxCell>
        <mxCell id="Pfc6o-DjHNUA7IROcY93-6" value="&lt;font style=&quot;font-size: 17px;&quot;&gt;GUI&lt;/font&gt;" style="ellipse;whiteSpace=wrap;html=1;fillColor=#ffe6cc;strokeColor=#d79b00;" vertex="1" parent="1">
          <mxGeometry x="780" y="295" width="120" height="80" as="geometry" />
        </mxCell>
      </root>
    </mxGraphModel>
  </diagram>
</mxfile>
